<svg version="1.2" xmlns="http://www.w3.org/2000/svg" viewBox="0 0.2540000000000191 1815.447 635.746" width="1816" height="636"><style>.a{fill:#615fff}.b{fill:#fff}</style><path fill-rule="evenodd" class="a" d="m593.9 189.8l-550.6 317.9-35.3-61.2 550.6-317.9z"/><path fill-rule="evenodd" class="a" d="m336.3 0.3v635.7h-70.7v-635.7z"/><path fill-rule="evenodd" class="a" d="m43.3 128.6l287.9 166.2-35.4 61.2-287.8-166.2z"/><path fill-rule="evenodd" class="a" d="m452.3 364.7l141.6 81.8-35.3 61.2-141.6-81.8z"/><path class="b" d="m837.9 490h47.5v-350h-47.5zm98 0h47.5v-130c0-46.5 24-75.5 62-75.5 34 0 51 19.5 51 59v146.5h47.5v-156c0-57.5-31.5-92.5-84-92.5-33.5 0-59 13.5-76.5 35.5v-28h-47.5zm226-199h44v115c0 56.5 35 91.5 92.5 91.5 50 0 88.5-37.5 85.5-95l-45.5-4.5c2 34-14 56-41.5 56-27.5 0-43.5-16.5-43.5-47v-116h122v-42h-122v-72h-47.5v72h-44zm255 199h47.5v-135c0-44 20-69.5 50-69.5 24.5 0 39 16.5 39 48.5 0 5.5 0 9.5-0.5 12l48-7c2.5-64-27-97.5-73.5-97.5-27.5 0-48.5 10.5-63 32v-24.5h-47.5zm290.5-145c-60.5 10-91 34.5-91 80.5 0 36 27.5 72 82.5 72 32.5 0 55.5-15 69-37.5v30h44.5v-162.5c0-53.5-35-86.5-98.5-86.5-55 0-99.5 33.5-96.5 94.5l45 3.5-0.5-7c0-30.5 19.5-50 53-50 34 0 52.5 17.5 52.5 43v10zm0.5 109.5c-28.5 0-46.5-13.5-46.5-34 0-22.5 20.5-32.5 53-38.5l53-8.5v14c0 40-25 67-59.5 67z"/></svg>